<svg 
xmlns="http://www.w3.org/2000/svg" 
version="1.1" 
xmlns:xlink="http://www.w3.org/1999/xlink" 
xmlns:svgjs="http://svgjs.dev/svgjs" 
width="1000" height="1000" viewBox="0 0 1000 1000"
>
    <rect width="1000" height="1000" fill="#ed1703"></rect>
    <g transform="matrix(0.7,0,0,0.7,150,106.25)">
    <svg viewBox="0 0 320 360" 
    data-background-color="#ed1703" 
    preserveAspectRatio="xMidYMid meet" 
    height="1125" width="1000" xmlns="http://www.w3.org/2000/svg" 
    xmlns:xlink="http://www.w3.org/1999/xlink">
    <g id="tight-bounds" transform="matrix(1,0,0,1,0,0)">
    <svg viewBox="0 0 320 360" height="360" width="320">
    <g><svg></svg></g><g>
    <svg viewBox="0 0 320 360" height="360" width="320">
    <g>
    <path d="M297.491 100.645c-12.426-21.51-112.674-79.355-137.491-79.355-24.817 0-125.028 57.845-137.491 79.355-11.591 20.02-11.591 138.726 0 158.746 12.463 21.474 112.674 79.319 137.491 79.319 24.817 0 125.064-57.845 137.491-79.355 11.591-20.02 11.591-138.69 0-158.71zM309.481 93.705c-14.461-24.998-119.469-86.295-149.481-86.295-30.012 0-135.02 61.297-149.481 86.295-14.025 24.199-14.025 148.391 0 172.59 14.461 24.998 119.469 86.295 149.481 86.295 30.012 0 135.02-61.297 149.481-86.259 14.025-24.235 14.025-148.427 0-172.626zM300.906 261.353c-12.753 22.055-115.472 81.317-140.906 81.318-25.434 0-128.153-59.298-140.906-81.354-11.881-20.529-11.881-142.178 0-162.707 12.753-22.019 115.472-81.281 140.906-81.281 25.434 0 128.153 59.298 140.906 81.318 11.881 20.529 11.881 142.178 0 162.706z"
    fill="#ffffff" fill-rule="nonzero" stroke="none" stroke-width="1" stroke-linecap="butt" 
    stroke-linejoin="miter" stroke-miterlimit="10" stroke-dasharray="" stroke-dashoffset="0" 
    font-family="none" font-weight="none" font-size="none" text-anchor="none" 
    style="mix-blend-mode: normal" data-fill-palette-color="tertiary"></path></g>
    <g transform="matrix(1,0,0,1,48,122.67145938173977)">
    <svg viewBox="0 0 224 114.65708123652048" height="114.65708123652048" width="224"><g>
    <svg viewBox="0 0 224 114.65708123652048" height="114.65708123652048" width="224"><g>
    <svg viewBox="0 0 224 114.65708123652048" height="114.65708123652048" width="224"><g>
    <svg viewBox="0 0 224 114.65708123652048" height="114.65708123652048" width="224">
    <g id="textblocktransform"><svg viewBox="0 0 224 114.65708123652048" 
    height="114.65708123652048" width="224" id="textblock"><g>
    <svg viewBox="0 0 224 114.65708123652048" height="114.65708123652048" width="224">
    <g transform="matrix(1,0,0,1,0,0)">
    <svg width="224" viewBox="5.7 -35.3 69.55 35.599999999999994" height="114.65708123652048" data-palette-color="#ed1703"><path d="M18.8-35Q25.5-35 29.3-31.8 33.1-28.6 33.1-23L33.1-23Q33.1-17.4 29.3-14.23 25.5-11.05 18.8-11.05L18.8-11.05 9.4-11.05 9.4 0 5.7 0 5.7-35 18.8-35ZM18.7-14.3Q23.9-14.3 26.65-16.57 29.4-18.85 29.4-23L29.4-23Q29.4-27.25 26.65-29.53 23.9-31.8 18.7-31.8L18.7-31.8 9.4-31.8 9.4-14.3 18.7-14.3ZM56.9 0.3Q51.7 0.3 47.47-2.02 43.25-4.35 40.87-8.4 38.5-12.45 38.5-17.5L38.5-17.5Q38.5-22.55 40.87-26.6 43.25-30.65 47.47-32.98 51.7-35.3 56.9-35.3L56.9-35.3Q62.1-35.3 66.27-33 70.45-30.7 72.85-26.63 75.25-22.55 75.25-17.5L75.25-17.5Q75.25-12.45 72.85-8.38 70.45-4.3 66.27-2 62.1 0.3 56.9 0.3L56.9 0.3ZM56.9-3Q61.05-3 64.4-4.88 67.75-6.75 69.65-10.08 71.55-13.4 71.55-17.5L71.55-17.5Q71.55-21.6 69.65-24.93 67.75-28.25 64.4-30.13 61.05-32 56.9-32L56.9-32Q52.75-32 49.37-30.13 46-28.25 44.07-24.93 42.15-21.6 42.15-17.5L42.15-17.5Q42.15-13.4 44.07-10.08 46-6.75 49.37-4.88 52.75-3 56.9-3L56.9-3Z" opacity="1" transform="matrix(1,0,0,1,0,0)" fill="#ed1703" class="wordmark-text-0" data-fill-palette-color="quaternary" id="text-0"></path></svg></g></svg></g></svg></g></svg></g><g></g></svg></g></svg></g></svg></g></svg></g><defs></defs></svg><rect width="320" height="360" fill="none" stroke="none" visibility="hidden"></rect></g></svg></g></svg>